<?xml version="1.0" encoding="utf-8"?>
<!-- Generator: Adobe Illustrator 24.1.2, SVG Export Plug-In . SVG Version: 6.00 Build 0)  -->
<svg version="1.1" id="Layer_1" xmlns="http://www.w3.org/2000/svg" xmlns:xlink="http://www.w3.org/1999/xlink" x="0px" y="0px"
	 viewBox="0 0 138.3 161" style="enable-background:new 0 0 138.3 161;" xml:space="preserve">
<style type="text/css">
	.st0{fill:#0071BC;}
	.st1{fill:#FCEE21;}
	.st2{fill:#00A99D;}
	.st3{fill:#666666;}
	.st4{fill:url(#XMLID_2_);}
	.st5{fill:url(#XMLID_3_);}
</style>
<rect y="0" width="138.3" height="161"/>
<rect id="XMLID_241_" x="-278" y="360" class="st0" width="94" height="94"/>
<polygon id="XMLID_240_" points="-260.9,392.9 -255.1,403.3 -255.1,454.2 -260.9,454.2 "/>
<polygon id="XMLID_239_" points="-203.8,392.9 -209.5,403.3 -209.5,454.2 -203.8,454.2 "/>
<polygon id="XMLID_232_" points="-241.2,425.1 -241.2,425.1 -241.2,416.1 -206.3,352 -198.8,356.1 -233.7,420.3 "/>
<polygon id="XMLID_228_" class="st1" points="-571.9,100.8 -524,187 -616,187 -616,104.1 "/>
<rect id="XMLID_230_" x="353" y="-169" class="st2" width="72" height="72"/>
<polygon id="XMLID_229_" points="368.2,-143.9 372.6,-135.8 372.6,-96.7 368.2,-96.7 "/>
<polygon id="XMLID_59_" points="410,-143.9 405.6,-135.8 405.6,-96.7 410,-96.7 "/>
<polygon id="XMLID_58_" points="389.1,-107 389.1,-107 385.8,-113 385.8,-169.2 392.4,-169.2 392.4,-113 "/>
<path id="XMLID_233_" class="st0" d="M-424.2,69.3l38.2-21.1V57l-27.9,14.7l0,0L-386,87v8.1L-424.2,74V69.3z"/>
<path id="XMLID_238_" class="st0" d="M-561.8,28L-600,49.1V41l27.9-15.3l0,0L-600,11V2.2l38.2,21.1V28z"/>
<path id="XMLID_235_" class="st0" d="M-385.9,103.6l23-63.9h9.6l-23.1,63.9H-385.9z"/>
<text id="XMLID_42_" transform="matrix(1 0 0 1 20.0017 376.1792)" style="font-family:'ArialMT'; font-size:89.8767px;">&lt;/&gt;</text>
<polygon id="XMLID_52_" points="-389.9,-169.2 -458.4,-169.2 -464.1,-200.4 -384.3,-200.4 "/>
<rect id="XMLID_91_" x="-58" y="-261" class="st0" width="94" height="94"/>
<polygon id="XMLID_90_" points="-38.2,-227.8 -32.5,-217.3 -32.5,-166.4 -38.2,-166.4 "/>
<polygon id="XMLID_89_" points="16.2,-227.8 10.5,-217.3 10.5,-166.4 16.2,-166.4 "/>
<polygon id="XMLID_88_" points="-11,-179.9 -11,-179.9 -15.3,-187.7 -15.3,-260.7 -6.7,-260.7 -6.7,-187.6 "/>
<polygon id="XMLID_96_" class="st0" points="210,-106 210,-126.9 203,-139 203,-253 136,-253 136,-106 169,-106 169,-201.4 
	178,-185.1 178,-106 "/>
<polygon id="XMLID_95_" class="st0" points="214,-106 214,-126.9 221,-139 221,-253 288,-253 288,-106 255,-106 255,-201.4 
	246,-185.1 246,-106 "/>
<polygon id="XMLID_111_" class="st0" points="75,0 75,96.4 69,106.7 63,96.4 63,0 6,0 6,124 34,124 34,43.7 42,57.5 42,124 69,124 
	96,124 96,57.5 104,43.7 104,124 132,124 132,0 "/>
<polygon id="XMLID_98_" class="st3" points="31.3,134.3 8.7,134.3 6.1,124 33.9,124 "/>
<polygon id="XMLID_94_" class="st3" points="129.4,134.3 106.7,134.3 104.1,124 132,124 "/>
<polygon id="XMLID_63_" class="st0" points="-323,185.7 -364.7,280 -323,280 "/>
<polygon id="XMLID_62_" class="st0" points="-165,185.7 -123,280 -165,280 "/>
<polygon id="XMLID_61_" class="st0" points="-237,133 -237,247 -244,259.1 -251,247 -251,133 -318,133 -318,280 -285,280 
	-285,184.6 -276,200.9 -276,280 -244,280 -212,280 -212,200.9 -203,184.6 -203,280 -170,280 -170,133 "/>
<polygon id="XMLID_60_" class="st3" points="-288,292.2 -314.9,292.2 -318,280 -285,280 "/>
<polygon id="XMLID_57_" class="st3" points="-173.1,292.2 -199.9,292.2 -203,280 -170,280 "/>
<polygon id="XMLID_56_" class="st0" points="-255.3,128 -244.3,118 -233.3,128 -220.2,128 -244.3,107.3 -268.5,128 "/>
<polygon id="XMLID_41_" class="st0" points="73.1,-119.3 83.3,-108.4 73.6,-97.3 73.9,-84.2 94,-108.7 72.8,-132.4 "/>
<polygon id="XMLID_55_" class="st0" points="366,189.7 324.3,284 366,284 "/>
<polygon id="XMLID_54_" class="st0" points="524,189.7 566,284 524,284 "/>
<polygon id="XMLID_53_" class="st0" points="452,137 452,251 445,263.1 438,251 438,137 371,137 371,284 404,284 404,188.6 
	413,204.9 413,284 445,284 477,284 477,204.9 486,188.6 486,284 519,284 519,137 "/>
<polygon id="XMLID_51_" class="st3" points="401,296.2 374.1,296.2 371,284 404,284 "/>
<polygon id="XMLID_47_" class="st3" points="515.9,296.2 489.1,296.2 486,284 519,284 "/>
<polygon id="XMLID_46_" class="st0" points="437,118.5 427,107.4 437,96.5 437,83.4 416.3,107.4 437,131.6 "/>
<polygon id="XMLID_44_" class="st0" points="453.1,96.7 463.3,107.6 453.6,118.7 453.9,131.8 474,107.3 452.8,83.6 "/>
<radialGradient id="XMLID_2_" cx="20.15" cy="887.8" r="16.6102" gradientTransform="matrix(1 0 0 1 0 -738.8)" gradientUnits="userSpaceOnUse">
	<stop  offset="0" style="stop-color:#FFFF00"/>
	<stop  offset="1" style="stop-color:#F15A24"/>
</radialGradient>
<polygon id="XMLID_14_" class="st4" points="11.3,137 0,144.3 5.7,147 4,156.7 13.7,153.3 20,161 23,154 31.9,161 33.7,151.7 
	40.3,146.7 29,137 "/>
<radialGradient id="XMLID_3_" cx="118.15" cy="887.8" r="16.6102" gradientTransform="matrix(1 0 0 1 0 -738.8)" gradientUnits="userSpaceOnUse">
	<stop  offset="0" style="stop-color:#FFFF00"/>
	<stop  offset="1" style="stop-color:#F15A24"/>
</radialGradient>
<polygon id="XMLID_45_" class="st5" points="109.3,137 98,144.3 103.7,147 102,156.7 111.7,153.3 118,161 121,154 129.9,161 
	131.7,151.7 138.3,146.7 127,137 "/>
</svg>
