<?xml version="1.0" encoding="utf-8"?>
<!-- Generator: Adobe Illustrator 19.0.0, SVG Export Plug-In . SVG Version: 6.00 Build 0)  -->
<svg version="1.1" id="Layer_1" xmlns="http://www.w3.org/2000/svg" xmlns:xlink="http://www.w3.org/1999/xlink" x="0px" y="0px"
	 viewBox="0 0 1280 800" style="enable-background:new 0 0 1280 800;" xml:space="preserve">
<style type="text/css">
	.st0{fill:#155799;}
	.st1{fill:#159957;}
	.st2{fill:#FFFFFF;}
	.st3{fill:#FFFFFF;stroke:#0C0109;stroke-miterlimit:10;}
	.st4{fill:#FF0000;stroke:#FFFFFF;stroke-miterlimit:10;}
	.st5{fill:#8CC63F;}
	.st6{fill:#3F4FE8;}
	.st7{fill:#97D1FF;}
	.st8{fill:#155790;}
	.st9{fill:#18A058;}
</style>
<rect id="XMLID_184_" x="-413" y="-357" style="fill:none;" width="584" height="112"/>
<text id="XMLID_185_" transform="matrix(1 0 0 1 -413 -330.7305)"><tspan x="0" y="0" class="st0" style="font-family:'MyriadPro-Regular'; font-size:37px;">#155799, #159957, </tspan><tspan x="295.5" y="0" class="st9" style="font-family:'MyriadPro-Regular'; font-size:37px;"> #18a058</tspan></text>
<rect id="XMLID_186_" x="-413" y="-276" class="st0" width="107" height="117"/>
<rect id="XMLID_187_" x="-242" y="-276" class="st1" width="107" height="117"/>
<rect id="XMLID_188_" x="318" y="-284" class="st2" width="153" height="153"/>
<rect id="XMLID_189_" x="350.5" y="-252.5" class="st3" width="82" height="86"/>
<polygon id="XMLID_190_" class="st4" points="360.5,-192 360.5,-173.5 422,-173.5 "/>
<polygon id="XMLID_191_" class="st5" points="384,-240 360,-240 384,-223 "/>
<polygon id="XMLID_192_" class="st6" points="394,-240 422,-240 394,-216.3 "/>
<rect id="XMLID_194_" x="-1490" y="931" class="st7" width="1300" height="799"/>
<polygon id="XMLID_195_" class="st1" points="-480,1730 -1189,930 -1471,931 -1471,1208 -1243.4,1208 -780,1730 "/>
<polygon id="XMLID_196_" class="st8" points="-190,931 -459.8,930 -1239,1730 -963.6,1730 "/>
<polygon id="XMLID_197_" class="st9" points="-1190.9,930 -942.6,1208 -1475,1208 -1475,931 "/>
<rect id="XMLID_198_" x="-1457" y="-27" class="st7" width="1288" height="799"/>
<polygon id="XMLID_199_" class="st1" points="-1167,772 -458,-28 -176,-27 -176,250 -403.6,250 -867,772 "/>
<polygon id="XMLID_200_" class="st0" points="-1456,-28 -1189,-28 -1189,773 -1457,773 "/>
<rect id="XMLID_202_" x="-1054" y="-284" class="st2" width="153" height="153"/>
<rect id="XMLID_204_" x="-20" y="0" class="st7" width="1301" height="799"/>
<polygon id="XMLID_206_" class="st1" points="1281,0 1011.3,-1 232,799 507.4,799 "/>
<polygon id="XMLID_208_" class="st0" points="282,-1 528.4,277 0,277 0,0 "/>
<polygon id="XMLID_210_" class="st9" points="-458,-28 -704.4,250 -176,250 -176,-27 "/>
<rect id="XMLID_211_" x="-37" y="-276" class="st9" width="142" height="133"/>
<polygon id="XMLID_212_" class="st0" points="-190,930 -458,930 -730.5,1208 -190,1208 "/>
<rect id="XMLID_214_" x="-1493" y="-35" class="st1" width="304" height="285"/>
<polygon id="XMLID_213_" class="st9" points="1011.3,0 1300,0 1300,801 1010,801 "/>
<polygon id="XMLID_201_" class="st8" points="-1457,-27 -1187.3,-28 -408,772 -683.4,772 "/>
<polygon id="XMLID_205_" class="st8" points="991,799 282,-1 0,0 0,277 227.6,277 691,799 "/>
<rect id="XMLID_216_" x="-20" y="-4.5" class="st1" width="252" height="285"/>
</svg>
